<?xml version="1.0" standalone="no"?><!DOCTYPE svg PUBLIC "-//W3C//DTD SVG 1.1//EN" "http://www.w3.org/Graphics/SVG/1.1/DTD/svg11.dtd"><svg t="1602074435963" class="icon" viewBox="0 0 1024 1024" version="1.1" xmlns="http://www.w3.org/2000/svg" p-id="6257" xmlns:xlink="http://www.w3.org/1999/xlink" width="200" height="200"><defs><style type="text/css"></style></defs><path d="M485.6 365.3c-149.8 0-242.3-13.2-282-17.6v409.8c39.7-4.4 132.2-17.6 282-17.6s295.2 13.2 334.9 17.6V347.7c-39.7 4.4-185.1 17.6-334.9 17.6z" fill="#54FEBD" p-id="6258"></path><path d="M881.5 772.5c-0.5 0-1.1 0-1.7-0.1-1.9-0.2-191.6-21-399.5-21-158.3 0-261.9 12.3-317.5 18.9l-18.7 2.2c-4.3 0.4-8.5-0.9-11.7-3.8-3.2-2.8-5-6.9-5-11.2v-491c0-4.3 1.8-8.4 5-11.2 3.2-2.9 7.5-4.2 11.7-3.8l18.7 2.2c55.6 6.6 159.2 18.9 317.5 18.9 207.9 0 397.6-20.8 399.5-21 4.2-0.4 8.5 0.9 11.7 3.8 3.2 2.8 5 6.9 5 11.2v490.9c0 4.3-1.8 8.4-5 11.2-2.7 2.5-6.3 3.8-10 3.8z m-401.2-51.2c173.7 0 335 14.4 386.1 19.5V283.2c-51.1 5.1-212.4 19.5-386.1 19.5-160.1 0-264.8-12.4-321-19.1l-1.7-0.2v457.1l1.7-0.2c56.2-6.6 161-19 321-19z" fill="#1D1B4C" p-id="6259"></path><path d="M409.1 634.5c-8.3 0-15.1-6.7-15.1-15v-70.8c0-8.3 6.7-15 15.1-15s15.1 6.7 15.1 15v70.8c-0.1 8.2-6.8 15-15.1 15zM477.7 634.5c-8.3 0-15.1-6.7-15.1-15v-87.3c0-8.3 6.7-15 15.1-15s15.1 6.7 15.1 15v87.3c0 8.2-6.8 15-15.1 15zM546.3 634.5c-8.3 0-15.1-6.7-15.1-15V511.6c0-8.3 6.7-15 15.1-15s15.1 6.7 15.1 15v107.8c0 8.3-6.8 15.1-15.1 15.1zM614.9 634.5c-8.3 0-15.1-6.7-15.1-15v-134c0-8.3 6.7-15 15.1-15s15.1 6.7 15.1 15v134c0 8.2-6.8 15-15.1 15z" fill="#1D1B4C" p-id="6260"></path><path d="M385.5 491.8c-6 0-11.6-3.6-14-9.5-3.1-7.7 0.7-16.5 8.4-19.6l88.8-35.6c5-2 10.6-1.2 14.8 2.1l35.4 27.5 84.5-36.7-4.2-2.2c-7.4-3.8-10.3-12.9-6.5-20.3 3.8-7.4 12.9-10.3 20.3-6.5l32.4 16.7c5.2 2.7 8.3 8.1 8.1 13.9-0.2 5.8-3.7 11-9 13.3l-121.8 52.9c-5 2.2-10.9 1.5-15.2-1.9l-35.6-27.7-80.9 32.6c-1.8 0.7-3.7 1-5.5 1z" fill="#1D1B4C" p-id="6261"></path></svg>