<?xml version="1.0" standalone="no"?><!DOCTYPE svg PUBLIC "-//W3C//DTD SVG 1.1//EN" "http://www.w3.org/Graphics/SVG/1.1/DTD/svg11.dtd"><svg t="1601951363530" class="icon" viewBox="0 0 1024 1024" version="1.1" xmlns="http://www.w3.org/2000/svg" p-id="1376" xmlns:xlink="http://www.w3.org/1999/xlink" width="200" height="200"><defs><style type="text/css"></style></defs><path d="M321.21 73.7h-181a18.53 18.53 0 0 0-18.52 18.53v859.66a18.53 18.53 0 0 0 18.52 18.53h181a18.53 18.53 0 0 0 18.53-18.53V92.23a18.53 18.53 0 0 0-18.53-18.53z m-90.5 734a46.5 46.5 0 1 1 46.49-46.5 46.5 46.5 0 0 1-46.49 46.54z m69.4-487.7H161.3v-23.35h138.81z m0-104.63H161.3V192h138.81zM588.61 72.68h-181a18.53 18.53 0 0 0-18.53 18.53v859.66a18.53 18.53 0 0 0 18.53 18.53h181a18.53 18.53 0 0 0 18.53-18.53V91.21a18.53 18.53 0 0 0-18.53-18.53z m-90.5 734a46.5 46.5 0 1 1 46.5-46.5 46.5 46.5 0 0 1-46.5 46.54zM567.52 319H428.7v-23.38h138.82z m0-104.62H428.7V191h138.82z" fill="#2633D2" p-id="1377"></path><path d="M796.15 53.91L618.32 87.64a18.51 18.51 0 0 0-14.75 21.65L763.75 953.9a18.53 18.53 0 0 0 21.65 14.75l177.84-33.73A18.52 18.52 0 0 0 978 913.27L817.81 68.66a18.53 18.53 0 0 0-21.66-14.75zM844 792a46.49 46.49 0 1 1 37-54.34A46.5 46.5 0 0 1 844 792z m-22.68-492.19l-136.39 25.87-4.35-22.93L817 276.88zM801.82 197l-136.38 25.89-4.35-22.89 136.38-25.87z" fill="#2633D2" p-id="1378"></path></svg>