<?xml version="1.0" standalone="no"?><!DOCTYPE svg PUBLIC "-//W3C//DTD SVG 1.1//EN" "http://www.w3.org/Graphics/SVG/1.1/DTD/svg11.dtd"><svg t="1601474209509" class="icon" viewBox="0 0 1080 1024" version="1.1" xmlns="http://www.w3.org/2000/svg" p-id="2649" xmlns:xlink="http://www.w3.org/1999/xlink" width="135" height="128"><defs><style type="text/css"></style></defs><path d="M824.554248 900.852288h-30.786928v-26.771242H816.522876l32.12549-20.078432-32.12549-20.078431h-22.755556v-26.771242h30.786928l74.959477 46.849673z" fill="#2A5082" p-id="2650"></path><path d="M532.747712 137.871895c-132.517647 0-247.633987 69.605229-313.223529 174.013072h625.108497c-64.25098-105.746405-179.36732-174.013072-311.884968-174.013072z m0 736.209151c108.423529 0 204.8-46.849673 271.728105-120.470588H261.019608c66.928105 73.620915 164.643137 119.132026 271.728104 120.470588z" fill="#E9EAEB" p-id="2651"></path><path d="M807.152941 820.538562h-495.267974v66.928105h495.267974" fill="#A3D4FF" p-id="2652"></path><path d="M807.152941 900.852288h-508.653595v-93.699347h508.653595v26.771242h-481.882353v40.156863h481.882353z" fill="#2A5082" p-id="2653"></path><path d="M780.381699 820.538562h26.771242v66.928105h-26.771242zM298.499346 900.852288h-26.771241c-22.755556 0-40.156863-17.401307-40.156863-40.156863v-13.385621c0-22.755556 17.401307-40.156863 40.156863-40.156863h26.771241v26.771242h-26.771241c-8.031373 0-13.385621 5.354248-13.385621 13.385621v13.385621c0 8.031373 5.354248 13.385621 13.385621 13.385621h26.771241v26.771242z" fill="#2A5082" p-id="2654"></path><path d="M231.571242 659.911111c0-9.369935-17.401307-13.385621-26.771242-13.385621-29.448366 0-53.542484 24.094118-53.542484 53.542484v-401.568628c0-29.448366 24.094118-53.542484 53.542484-53.542483 9.369935 0 26.771242 2.677124 26.771242 13.385621v401.568627z" fill="#E9EAEB" p-id="2655"></path><path d="M151.257516 713.453595c-8.031373 0-13.385621-5.354248-13.385621-13.385621v-401.568628c0-37.479739 29.448366-66.928105 66.928105-66.928104 25.43268 0 40.156863 10.708497 40.156863 26.771242v401.568627c0 8.031373-5.354248 13.385621-13.385621 13.385621-6.69281 0-12.047059-4.015686-13.385621-10.708497-2.677124-1.338562-8.031373-2.677124-13.385621-2.677124-22.755556 0-40.156863 17.401307-40.156863 40.156863 0 6.69281-5.354248 13.385621-13.385621 13.385621z m53.542484-455.111111c-22.755556 0-40.156863 17.401307-40.156863 40.156862v348.026144c10.708497-8.031373 25.43268-13.385621 40.156863-13.385621 4.015686 0 9.369935 0 13.385621 1.338562v-374.797385c-1.338562-1.338562-6.69281-1.338562-13.385621-1.338562z" fill="#2A5082" p-id="2656"></path><path d="M231.571242 298.499346h348.026144v26.771242h-348.026144zM780.381699 298.499346h66.928105v26.771242h-66.928105zM874.081046 766.996078h-669.281046c-37.479739 0-66.928105-29.448366-66.928105-66.928104h26.771242c0 22.755556 17.401307 40.156863 40.156863 40.156863h669.281046c22.755556 0 40.156863-17.401307 40.156862-40.156863h26.771242c0 36.141176-29.448366 66.928105-66.928104 66.928104z" fill="#2A5082" p-id="2657"></path><path d="M847.309804 659.911111c0-9.369935 17.401307-13.385621 26.771242-13.385621 29.448366 0 53.542484 24.094118 53.542483 53.542484v-401.568628c0-29.448366-24.094118-53.542484-53.542483-53.542483-9.369935 0-26.771242 2.677124-26.771242 13.385621v401.568627z" fill="#E9EAEB" p-id="2658"></path><path d="M927.623529 713.453595c-8.031373 0-13.385621-5.354248-13.385621-13.385621 0-22.755556-17.401307-40.156863-40.156862-40.156863-5.354248 0-10.708497 1.338562-13.385621 2.677124-1.338562 5.354248-6.69281 10.708497-13.385621 10.708497-8.031373 0-13.385621-5.354248-13.385621-13.385621v-401.568627c0-16.062745 14.724183-26.771242 40.156863-26.771242 37.479739 0 66.928105 29.448366 66.928104 66.928104v401.568628c0 6.69281-5.354248 13.385621-13.385621 13.385621z m-53.542483-80.313726c14.724183 0 29.448366 5.354248 40.156862 13.385621v-348.026144c0-22.755556-17.401307-40.156863-40.156862-40.156862-6.69281 0-10.708497 1.338562-13.385621 2.677124v374.797385c5.354248-2.677124 9.369935-2.677124 13.385621-2.677124z" fill="#2A5082" p-id="2659"></path><path d="M285.113725 605.030065v14.724183h481.882353v-468.496732h-14.724183L285.113725 605.030065z" fill="#A3D4FF" p-id="2660"></path><path d="M780.381699 633.139869h-508.653594v-33.464052l475.189542-461.803922h33.464052v495.267974z m-476.528104-26.771242h449.756863V167.320261L303.853595 606.368627z" fill="#2A5082" p-id="2661"></path><path d="M673.296732 579.597386h26.771242v40.156862h-26.771242zM606.368627 579.597386h26.771242v40.156862h-26.771242zM539.440523 579.597386h26.771242v40.156862h-26.771242zM472.512418 579.597386h26.771242v40.156862h-26.771242zM405.584314 579.597386h26.771242v40.156862h-26.771242z" fill="#2A5082" p-id="2662"></path><path d="M673.296732 338.656209h13.385621v187.398693h-187.398693v-13.385621z" fill="#FFFFFF" p-id="2663"></path><path d="M700.067974 539.440523h-214.169935v-32.12549l182.044445-182.044445h32.12549v214.169935z m-182.044445-26.771242h155.273203V357.396078L518.023529 512.669281z" fill="#2A5082" p-id="2664"></path></svg>