<?xml version="1.0" standalone="no"?><!DOCTYPE svg PUBLIC "-//W3C//DTD SVG 1.1//EN" "http://www.w3.org/Graphics/SVG/1.1/DTD/svg11.dtd"><svg t="1601474126702" class="icon" viewBox="0 0 1024 1024" version="1.1" xmlns="http://www.w3.org/2000/svg" p-id="2224" width="128" height="128" xmlns:xlink="http://www.w3.org/1999/xlink"><defs><style type="text/css"></style></defs><path d="M915.47 361.66c-21.06-49.8-51.21-94.52-89.61-132.92s-83.12-68.55-132.92-89.61c-51.57-21.81-106.34-32.87-162.78-32.87-68.32 0-136.12 16.85-196.06 48.72-58.02 30.85-108.67 75.64-146.48 129.53-6.34 9.04-4.16 21.52 4.88 27.86 9.04 6.35 21.52 4.16 27.86-4.88 34.21-48.76 80.04-89.28 132.52-117.18 54.18-28.81 115.48-44.04 177.28-44.04 51.06 0 100.59 10 147.2 29.71 45.03 19.05 85.48 46.32 120.21 81.06 34.74 34.74 62.01 75.18 81.05 120.21 19.71 46.61 29.71 96.14 29.71 147.2s-10 100.59-29.71 147.2c-19.05 45.03-46.32 85.48-81.05 120.21s-75.18 62.01-120.21 81.05c-46.61 19.71-96.14 29.71-147.2 29.71s-100.59-10-147.2-29.71c-45.03-19.05-85.48-46.32-120.21-81.05s-62.01-75.18-81.05-120.21c-19.71-46.61-29.71-96.14-29.71-147.2 0-35.23 4.84-70.1 14.37-103.64 3.02-10.62-3.14-21.69-13.77-24.71-10.63-3.02-21.69 3.14-24.71 13.77-10.55 37.1-15.9 75.65-15.9 114.58 0 56.45 11.06 111.21 32.87 162.78 21.06 49.8 51.21 94.52 89.61 132.92s83.12 68.55 132.92 89.61c51.57 21.81 106.34 32.87 162.78 32.87s111.21-11.06 162.78-32.87c49.8-21.06 94.52-51.21 132.92-89.61s68.55-83.12 89.61-132.92c21.81-51.57 32.87-106.34 32.87-162.78s-11.06-111.22-32.87-162.79z" fill="#004039" p-id="2225"></path><path d="M158.94 378.73c2.67 1.21 5.48 1.78 8.23 1.78 7.61 0 14.89-4.37 18.23-11.76 1.39-3.08 2.85-6.18 4.31-9.2 4.82-9.94 0.68-21.9-9.26-26.73s-21.9-0.68-26.73 9.26a393.91 393.91 0 0 0-4.77 10.18c-4.54 10.07-0.08 21.92 9.99 26.47z" fill="#004039" p-id="2226"></path><path d="M603.96 152.7c-8.73 2.91-16.95 6.85-24.37 11.76 3.99 0.69 7.93 1.26 11.87 1.88-5.71 17.18-35.44 5.65-47.72 5.71 9.65-3.77 24.09-8.79 32.2-14.72 4.28-3.09-0.06-5.2 5.76-8.34-16.84-2.28-34.02-3.59-51.54-3.59-27.11 0-53.48 2.91-78.94 8.39h1.37c-5.65 3.25-16.61 13.92-10.21 20.54 6.27 6.51 13.75-3.48 19.97-6.62 14.5-7.36 33.96-8.1 50.06-11.18-2.8 7.59-25.86 4.85-33.9 7.7-10.11 3.77-5.6 6.34-12.68 17.64 3.03-0.34 6.28 1.43 9.37 1.31v2.17c-6.97-0.68-13.59-3.94-15.13 4.34-8.85-13.41-14.67-12.33-24.14-0.46 9.36 5.14 18.6 11.7 11.18 20.61-9.01 10.95-14.49-2.52-5.19-8.17-8.45-3.82-14.95-10.38-21.52-1.99 2.8-0.23 5.82 1.14 8.68 1.14-1.66 2.34-3.26 9.82-4.8 10.67-3.59 2.06-16.95-2.4-20.94-2.97-9.82-1.2-19.64-0.91-29.8-0.34 1.83 12.39-12.1 0.51-17.18-2.57 9.19-9.24 20.38-5.76 30.94-4.28 8.84 1.2 21.97 1.14 23-10.1-9.7-2-14.38-1.43-19.35-8.79-1.94-2.91-3.25-5.88-3.71-8.9-60.22 24.65-112.67 64.21-152.79 114.26 8.96 6.17 18.49 13.53 22.08 16.73 6.4 5.48 9.54 12.04 13.53 18.72 0.17 0.28 3.77 5.82 5.14 8.05 4.34 4.33 7.88 9.18 8.79 15.12 1.2 7.14-1.49 13.01-2.11 20.43-2.06 22.72 1.2 44.01 18.89 59.93 4.91 4.4 11.36 6.68 16.21 11.42 5.02 4.79 4.45 8.1 7.53 13.13 8.11 13.47 18.95 26.14 28.31 38.87 8.22 11.07 11.65 8.9 3.54-2.57-5.42-7.82-12.21-15.47-16.72-23.8-0.52-0.92-5.08-11.87-3.54-11.59 12.61 2.74 15.18 11.36 23.4 21.46 8.11 10.05 14.95 15.64 19.69 27.63 5.54 13.98 13.93 20.83 27.74 26.94 6.74 3.08 17.81 11.13 25.06 12.04 8.62 1.14 13.13-4.39 21.17-0.51 5.43 2.51 9.54 10.78 16.27 12.72 6.39 1.94 10.67-0.45 16.61 3.54 7.13 4.91 9.65 13.19 16.38 18.27 4.85 3.65 11.76 8.27 17.87 9.24 4.39 0.69 9.19-2.56 13.58-1.14 7.88 2.51 9.65 12.1 7.25 19.81-2.63 8.62-10.62 13.92-13.87 22.43-2.91 7.7-1.03 14.21-2 21.57-1.08 7.6-7.13-0.05-1.08 12.85 2.85 6.05 7.07 11.41 10.67 16.95 7.19 10.96 12.33 20.49 22.03 29.28 6.79 6.16 21.69 13.41 25.12 22.66 2.96 8.16 0.45 26.2-1.03 34.87-3.26 18.1-2.74 39.9-7.76 56.74-4.86 16.38-10.51 21.29-6.34 39.15 1.77 7.65 3.14 3.88 0 13.7-0.97 2.85-0.06 3.99-1.14 6.85-2.28 6.05-7.76 9.7-10.05 15.92 8.68 0.46 7.99 3.37 5.25 6.85 14.56-1.2 28.77-3.14 42.75-5.93-2.45-2.57-5.08-5.2-5.02-7.02 0-1.95 7.71-11.88 8.73-14.39 1.66-3.88 2.86-12.44 5.26-15.52 4.16-5.25 13.01-3.31 11.35-13.02 19.87-0.22 28.37-3.25 31.62-23.45-3.53-1.72-2.79-0.69-3.36-3.77 0.68 3.71 14.84-1.43 16.15 1.14 1.03 1.94 19.06-22.66 21-24.71 5.14-5.37 9.59-9.54 12.79-15.99 1.31-2.51 2.68-10.27 5.36-14.04-0.17 0.69-0.4 1.26-0.68 1.94 6.45-10.16 14.61-9.01 23.8-13.07 9.25-4.11 2.57-3.02 9.36-9.41 8.05-7.54 9.87-3.2 12.16-15.7 1.65-9.25-0.52-17.58 2.45-25.91 3.71-10.51 12.79-13.93 18.78-22.83 4.57-6.91 8.85-17.98 2.68-24.83-5.13-5.65-20.49-10.39-27.39-12.05-8.17-1.94-17.64-2.11-25.35-5.25-9.01-3.71-16.55-13.24-21.11 1.6-1.33-0.88-6.05-3.57-7.36-5.36 1.64 1.1 8.58-3.87 9.64-5.08-3.54 0.21-15.47 2.83-18.13 1.97 0.99 0.49 2.98 0.26 3.92 0.42-3.92 2.11-4.73 1.38-4.18-0.54-0.02-0.01-0.04-0.02-0.05-0.03 1.09-3.71 7.42-11.98 7.54-13.58 0.63-9.19-12.67-19.69-19.92-21.75-9.93-2.85-15.53-1.6-23.97-7.76-10.34-7.59-20.27-15.92-33.34-17.35-2.68-0.34-5.7 1.2-8.62 0.8-7.02-1.03-9.36-5.6-15.24-7.14-7.24-1.77-10.04 4.46-14.32 4.46-6.45 0-7.94-6.68-17.3-1.09-13.75 8.33-6.22 13.53-22.03 9.53-8.27-2.05-17.63 3.03-25.62-2.51-7.14-4.96-8.79-18.72-1.77-24.54-3.6 2.97-3.49-6.39-6.05-8.05-4.06-2.74-10.79 0.46-15.53-0.68-6.39-1.6-10.1-2.17-8.67-8.34 1.59-6.73 19.34-25.05 1.14-24.6-9.88 0.29-13.02 14.96-23.52 17.18-11.81 2.4-22.14-1.65-28.25-12.1-12.73-21.8 7.53-48.63 28.19-50.51 16.1-1.54 39.79-13.47 51.66 4.39 3.48 5.26 11.93 25.29 16.27 12.28 1.37-3.93-3.35-21.04-4.9-28.26-0.05 0.04-0.09 0.09-0.13 0.17-0.04-0.65-0.09-1.3-0.17-1.92 0.08 0.44 0.2 0.98 0.33 1.64 3-4.62 7.61-7.71 11.57-11.55-0.14 0.14-0.29 0.28-0.43 0.42 4.17-4.11 15.07-8.96 17.01-14.67 1.03-3.14-3.76-7.25-1.25-11.64 1.88-3.31 6.62-2 8.44-4.23 2.63-3.25 2.92-8.44 5.71-11.81 2.86-3.43 8.34-3.88 11.19-6.51 6.62-5.99 8.39-12.9 16.21-16.55 7.3-4.97 15.12-13.41 24.43-9.59-3.31 3.82-11.87 6.22-14.39 9.82-1.65 2.45 12.73 1.02 14.67 0.34 8.11-2.97 14.5-9.08 21.29-13.53 11.7-7.76 25.34-8.16 39.5-5.25 4.34 0.86-7.88-16.72-9.13-18.15-4.91-5.71-6.11-10.73-14.1-3.42-2.34 2.11-4.74 9.3-6.39 12.33-4.82 8.79-3.97 8.07-13.52 12.96 0.13-0.07 0.26-0.15 0.39-0.24-7.99 1.54-15.64 5.03-18.95-4.91-1.03-3.25 3.6-8.1 1.03-11.47-5.65-7.3-24.6 8.16-31.34 10.62 3.48-27.23 35.67-12.84 52.86-18.32 4.68-1.49 22.25-8.22 23.23-12.62 1.42-6.62-13.93-17.23-17.47-20.26-7.48-6.51-11.53-10.16-15.81-20.2-4.51-10.68-7.42-21.29-18.78-13.47-4.22 2.96-1.14 9.3-8.45 10.33-4.56 0.57-9.24-5.2-11.87-7.88-3.94-4.11-8.1-14.16-15.29-15.07-6.28-0.74-23.58-9.93-31.68-3.99-6.28 4.56 0.8 21.74 2.68 27.85 4.05 13.3 6.62 13.75-4.68 22.09-5.54 4.05-8.85-0.29-6.85 10.67 1.09 5.77 7.19 6.79 2.85 11.76-2.68 2.97-9.13 2.68-12.27 1.2-9.81-4.57-1.02-10.68-5.7-17.18-3.54-4.91-22.32-8.85-28.71-11.82-14.22-6.39-51.66-13.24-40.13-35.21 3.08-6 14.78-14.84 20.15-18.21 5.48-3.54 12.27-4.51 16.84-9.36 2.57-2.74 2.74-10.33 5.08-12.16 3.25-2.62 12.72-1.37 17.75-1.31 21.8-4.34 1.94-36.02 30.7-30.31 7.94 1.6 15.87 9.65 22.44 14.16 7.36 5.02 9.81 4.45 7.47 12.15-0.51 1.77-8.73 9.76-10.84 11.42-3.77 2.97-9.99 4.34-14.5 6.16 15.01 0 21.29-0.74 33.56 7.42 10.45 6.97 17.01 11.59 29.97 11.08-0.74-6.34-11.87-3.89-11.42-10.11 0.34-5.19 7.02 1.72 7.88 1.77 3.54 0.12 12.84 4.4 10.84-5.65-1.77-8.79-21-4.62-14.84-19 8.62-0.86 6.28 8.61 12.05 10.67 6.1 2.17 14.04-5.25 15.35-10.39-8.56-4.39-34.7-11.41-31.73-23.8 17.46 11.13 34.87 22.32 52.28 33.39-14.1 12.67 10.33 5.54 11.81 5.94 4.17 1.08 14.73 10.16 7.82 11.87-7.25 1.77-10.9-8.74-18.21-0.92 6.11 1.6 27.52 2.86 21.75 14.39-2.28 4.56-16.09 3.82-20.15 12.84 2.97-0.57 6.11 0.34 9.13-0.46-6.62 10.22 3.09 16.96 8.45 25.17 6.11 9.25 14.56 23.52 26.6 26.43 25.63 6.39 22.49-35.33 41.95-41.89 5.42-1.89 11.25-0.57 16.72-2.06 6-1.65 9.31-6.05 14.05-9.36 11.87-8.16 22.14-8.16 36.87-8.62 0.4 0 0.8 0 1.2-0.05-52.97-55.65-122.55-95.38-200.8-110.85zM904.75 467.02c-5.19 3.83-10.78 11.02-13.12 15.3-3.31 5.88-3.14 9.53-8.28 14.16-4.79 4.33-10.73 5.7-15.07 11.3-4.05 5.25-3.31 9.36-6.68 15.41-1.54 2.85-5.36 3.99-7.02 7.53-3.54 7.65 0.57 19.75 0.23 28.2-0.4 10.16-3.88 19.23 1.71 28.02 5.26 8.22 13.87 16.84 21.24 23.23 5.65 4.91 11.53 10.05 18.6 11.82a376.335 376.335 0 0 0 12.85-97.55c0-19.52-1.55-38.7-4.46-57.42zM872.91 426.04c-0.18 4.34-1.66 8.34 0.74 12.1 2.28 3.6 5.99 7.25 9.19 10.05 3.14 2.68 6.39 5.59 10.73 5.42 1.25-0.06 7.25-0.91 8.16-1.65 0.11-0.12 0.23-0.29 0.34-0.46-3.71-18.67-8.73-36.93-15.07-54.57-0.34 0.75-0.8 1.43-1.71 2.23-2.05 1.88-4.62 2.45-6.51 4.91-1.71 2.22-1.42 3.99-2.85 6.56-0.68 1.26-2.34 1.77-3.02 3.26-1.55 3.31 0.22 8.5 0 12.15z" fill="#B4E7B4" p-id="2227"></path></svg>