<?xml version="1.0" standalone="no"?><!DOCTYPE svg PUBLIC "-//W3C//DTD SVG 1.1//EN" "http://www.w3.org/Graphics/SVG/1.1/DTD/svg11.dtd"><svg t="1601474519016" class="icon" viewBox="0 0 1024 1024" version="1.1" xmlns="http://www.w3.org/2000/svg" p-id="6483" xmlns:xlink="http://www.w3.org/1999/xlink" width="128" height="128"><defs><style type="text/css"></style></defs><path d="M511.99 511.99m-511.99 0a511.99 511.99 0 1 0 1023.98 0 511.99 511.99 0 1 0-1023.98 0Z" fill="#056B78" p-id="6484"></path><path d="M1020.846 455.252C1022.738 473.854 1024 492.77 1024 512c0 282.8-229.202 512-512 512-19.862 0-39.094-1.26-58.326-3.468L135.882 702.738l697.064-435.388 187.9 187.902z" fill="#055661" p-id="6485"></path><path d="M135.882 703.054c63.684-10.718 127.054-21.438 190.108-32.474 4.73-72.512 9.144-145.34 13.872-217.852s9.144-145.024 13.872-217.538c-53.912 10.718-107.822 21.438-162.68 32.158L163.624 484.886c-9.144 72.514-18.286 145.34-27.43 217.852l-0.312 0.316z" fill="#E6E6E6" p-id="6486"></path><path d="M511.998 703.054c-62.74-10.718-124.532-21.438-186.01-32.474 4.73-72.512 9.144-145.34 13.872-217.852s9.144-145.024 13.872-217.538a47009.452 47009.452 0 0 0 158.582 32.158v435.39l-0.316 0.316z" fill="#B3B3B3" p-id="6487"></path><path d="M332.612 566.858l4.414-67.784c3.154 0 3.468-1.26 8.198 0 0.63 0.316 1.26 0.316 1.89 0.316 0 0 0.316 0 0.316 0.316l0.316 0.316c0.63 0.63 0.946 1.26 1.576 1.89 3.154 2.206 6.304 4.73 9.144 6.936 5.99 1.89 5.99-1.576 12.612 3.468 2.838 2.206 1.576 2.206 3.154 4.73 0.316 0.316 0.63 0.946 0.946 1.26l1.89 3.784c3.154 3.154 7.25 1.26 11.664 4.414 2.524 1.89 0.63 1.26 5.99 2.206 8.512 0.946 5.044 0.316 11.664 4.414 2.524 1.26 3.154 0.63 5.36 1.89 3.154 3.468 2.524 7.25-0.316 10.404-8.198 9.458-5.36 7.882-5.99 15.448-0.316 4.414-1.89 13.242-6.936 14.188-18.916 4.098-7.882 6.936-12.926 14.188-1.576 2.206-2.524 2.524-3.468 4.098-3.784 6.936-1.26 9.144-12.296 7.568 0.946 1.576 0.316 0.316 1.576 1.89 3.154 4.098 3.784 6.936-2.838 7.882-5.674 0.946-3.154 0-3.784 4.73-2.206 0.63-3.154 0-4.73 1.26 1.89 2.838 0 0.316 3.468 2.206-0.63 1.576-0.946 3.154-1.576 4.414-1.26 3.784-1.576 0.316-2.206 4.414 1.89 0.63 3.154 0.63 5.044 2.524-0.316 1.26-1.89 5.36-2.524 7.568 2.838 3.154 5.044 6.62 11.034 6.936 0 2.838 0.63 2.524-2.206 2.838-2.524 0.316-7.882-1.26-10.088-2.206-3.784-1.576-7.568-3.784-10.088-6.936l-2.524-2.524c-2.838-2.838-1.576-4.098-2.524-5.99-0.316-1.26-2.838-2.206-1.89-5.99 0.316-0.946 2.206-5.99-0.316-5.044-2.524 0.946 1.89 0.316-1.576 1.89-0.946-1.89-1.576-4.414-1.89-6.62-0.946-3.784-1.89-3.784-2.524-5.99-1.26-5.044 1.576-5.674-1.576-14.502-2.206-5.674-1.26-19.232-3.468-26.166v-0.634z m179.386-197.676v55.802c-0.63-0.316-0.946-0.63-1.576-0.946-3.154-2.206-4.098-4.414-7.568-3.784 0 2.206 0.316 2.206 1.576 3.784 5.044 5.044 3.468 3.154 7.568 5.044v6.936c-0.316 0-0.63 0.316-0.946 0.316-0.946-2.206 1.26-0.946-1.576-4.098-1.576-1.576-2.838-1.89-5.36-2.838-5.99-2.206-5.044-3.784-8.828-6.62-4.098 0-3.154 0.946-5.99 2.206-3.468 1.26-2.838-0.316-6.936 0-3.154 4.414 1.576 0.63-4.73 4.414-7.25 4.414-1.26 8.828-12.926 10.088-0.946 0-1.26 0-1.89 0.316-2.206 0.63-0.946 0-2.206 0.946 0.946 1.89-0.316 1.576 3.468 1.89 7.25 0.63 8.198-2.524 13.242-3.468 2.524-0.316 18.602-0.946 19.862-0.63 3.468 3.154 0.63 5.044 0.63 7.568 3.784 1.576 9.144 1.89 11.35 3.468 2.524 1.89 1.26 1.576 2.524 1.89v135.882l-0.316-0.316c-0.63-0.946-1.576-1.89-1.89-2.838-2.838-6.62-1.576-11.664-6.62-18.286-5.99-8.828 3.154-13.242 2.838-18.286 0-1.26-0.63-2.206-0.946-3.154-1.26-5.36-1.89-10.404-6.62-14.502-5.044-4.73-4.414-2.838-2.838-10.718 2.206-8.828-2.838-6.62-9.458-6.62-3.468-7.882-9.774-4.098-16.394-1.576-4.098 1.576-5.674-0.316-10.088 0-10.088 0.946-2.206 4.414-15.764-3.784-5.674-3.468-1.89-1.576-5.36-5.99-1.26-1.576-4.73-3.784-6.304-5.36-5.044-5.044 0.946-10.088 0-16.078-1.576-10.718-3.784-1.26 3.784-14.502 4.098-6.936 10.088-6.936 11.664-10.088 1.26-2.838 0.316-4.73 3.154-7.25 2.206-2.206 5.36-1.576 6.62-4.73 1.89-4.098-1.576-4.414-5.36-4.73-1.576-4.098-1.576-3.154-0.316-6.936 0.63-2.206 0-3.154 0.63-5.36 1.576-5.36 13.242 0 16.708-2.206 1.576-2.206 1.89-4.414 0-6.62-1.89-2.206-4.414-1.89-5.674-4.098 2.838-1.576 0.63-0.316 3.154-0.63 2.838-0.63 2.524-1.26 5.99-1.576 3.154-0.316 5.044-2.524 8.198-4.098 4.414-2.206 2.206-4.098 7.568-4.73 8.198-1.26 2.838-0.946 3.784-6.936 1.26-0.316 2.524-0.946 3.784-1.26 2.524 2.524-0.63 1.576 2.524 3.468 0.946-0.316 1.89-0.63 2.838-1.26-0.316-2.838-2.206-2.206-3.154-5.99-4.098 0.63-5.674 3.154-8.828 2.206-3.154-0.946-3.468-4.414-3.154-7.568 1.26-2.206 7.25-3.468 9.458-4.098 3.784-0.946 3.154-2.838 6.62-5.674 4.414-3.468 1.26 0 3.468-4.414 5.044 0 2.524-0.316 5.674-1.576l0.938-0.002z m-170.246 53.912l2.206-36.888c0.63-0.946 1.576-2.206 2.838-3.468 1.26 0 6.62 0.316 7.568 0.63 3.784 0.63 1.576 1.26 5.674 2.524 0 2.524-1.576 5.674 3.154 5.044 3.784-0.63 2.838-2.838 7.25-3.468 1.89 3.784 1.576 5.36 2.524 9.774 10.718 3.154 5.99 5.99 3.784 11.98 1.26 0.63 2.838 0.946 4.098 1.576 0 1.89 0 3.468-0.316 5.36-0.316 0-11.664-1.89-12.296-2.206 1.576-3.784 5.044-3.784 6.936-7.882-4.098 0.63-3.784 1.576-6.62 2.206-2.524 0.63-4.73 0.316-7.568 0.316-0.946 2.524 0-2.206 0.316 0.946 0 1.26 0.946 0 0 1.26-3.784-1.26-2.524-4.414-9.458-1.576 1.576 0.63 3.154 0.946 4.73 1.576-0.316 3.468-0.63 0.946-1.576 3.154-2.524 5.99 6.62 2.206 8.828 1.89-0.63 3.154-3.154 3.154-6.62 4.098-4.098 0.946-5.044 2.206-8.198 2.838 0-3.784-0.63-0.63 1.576-3.154-3.154 0.316-5.36 1.26-8.512 2.206h-0.316l-0.002 1.264z m3.154-47.608l0.946-12.926c1.576-0.63 3.468-0.946 5.36-0.946 23.96 0 12.612 0.946 19.862 3.468 1.576 0.63 4.73 0.946 5.674 1.89 1.576 1.89 0 3.468 2.524 4.73 2.206 1.26 2.524 0 5.044 2.524-0.63 1.576-1.89 3.154-5.044 3.154-4.098 0-1.576-2.206-5.99-1.89 0 3.154 4.098 4.414 0.316 5.99-3.154 1.576-1.26-0.63-3.784 0.63 0 0-0.316 0-0.316 0.316l-0.316 0.316c-0.316 0.316-0.946 0.63-1.26 0.946-5.99-1.26-5.044-0.63-8.512-3.784-1.26-1.26-1.576-1.576-4.098-1.26-1.576 0-3.468 0.63-5.044-0.316 2.838-2.838 4.414 0 8.512-1.89 0.63-0.316 5.36-3.154 6.304-3.784-1.26-2.206 0-0.316-1.89-1.89-4.098-3.468-5.36-2.524-11.034-2.524-2.524 2.524-4.73 5.36-7.568 6.62l0.314 0.626z m118.226 17.972c0 6.62 2.838 4.414 5.674 7.568-1.26 2.838-1.576 0.63-2.838 3.468-1.26 2.524 0.316 0.316-0.63 4.414 2.206 0 5.36-0.63 8.198-0.63 4.098-0.316 4.098-0.63 5.36-3.784-2.206-2.206-4.414-4.414-6.936-6.304-2.838-3.468 0-0.946-0.946-4.098-0.63-0.946-1.26-2.206-1.89-3.154-3.784 0.946-3.468 0.63-6.304 2.524l0.312-0.004z" fill="#C94545" p-id="6488"></path><path d="M511.998 703.054c62.424-10.718 124.218-21.438 186.01-32.474-4.73-72.512-9.144-145.34-13.872-217.852s-9.144-145.024-13.872-217.538a47009.452 47009.452 0 0 1-158.582 32.158v435.39l0.316 0.316z" fill="#E6E6E6" p-id="6489"></path><path d="M888.118 703.054c-64-10.718-127.368-21.438-190.108-32.474-4.73-72.512-9.144-145.34-13.872-217.852s-9.144-145.024-13.872-217.538a37756.046 37756.046 0 0 0 162.68 32.158l27.43 217.538c9.144 72.514 18.286 145.34 27.744 217.852v0.316z" fill="#B3B3B3" p-id="6490"></path><path d="M176.236 382.108l-0.63 6.304c5.674 1.26 11.98 0.63 14.502 0.946 4.414 0.63 1.89 0.63 6.62-0.316 2.524-0.63 5.99-1.89 6.62-1.89 1.26 0 3.468 1.26 7.25 1.576 8.198 0.63 7.25 4.098 6.936 9.774 0.946 0.316 1.576 0.316 2.524 0.63 0 0 0.316 0.316 0.63 0.316 0 0 0.316 0.316 0.63 0.316 0 0 0.316 0 0.63 0.316-0.946 2.838-0.63 1.26-0.63 4.73 0.316 3.154-0.63 3.154-1.576 5.36 3.154 4.414 3.784 3.784 0 9.144-5.044 7.568-9.774 8.512-8.198 19.232 0.63 3.154 1.26 5.36 4.098 6.936 1.26 0.63 0-0.316 1.26 0.946 1.26 0.946 0.316-0.316 0.946 1.26 1.576 1.26 0-0.63 0.946 1.26 1.26 2.524 0.316 3.468 1.576 5.674 3.154 6.304 1.576 0.63 1.576 6.936 4.73 1.576 3.154 0.63 4.73 4.414 0.946 2.206 2.838 3.784 5.36 4.098-2.838-10.088-12.296-16.394-6.304-18.602 4.414 2.838 0 3.154 3.784 7.25 5.99 5.99 2.524 3.154 5.044 6.304 1.26 1.576 3.468 3.154 5.36 5.36 3.468 3.784 1.576 4.098 1.576 8.198 3.784 2.838 9.458 5.044 15.132 6.936 6.62 2.206 3.154 1.576 9.144 0.946 4.098-0.316 4.73 2.206 6.936 3.784 5.674 3.784 10.088-0.63 14.818 7.568 2.206 3.784-1.89-0.316 5.674 5.36 2.524 1.26 5.044 2.206 7.568 3.468 1.576-2.206 0-2.524 3.468-3.784 1.576 0.946 3.468 3.784 4.414 5.99 3.154 11.35-12.296 11.35-5.36 20.808-1.26 2.524-2.838 1.89-1.89 5.044 0.946 3.468 2.206 2.524 4.098 4.414 4.414 4.414 9.458 16.078 15.132 19.232 0 0 0.316 0 0.316 0.316 4.098 2.206 8.828 3.468 11.034 5.99 0.63 0.63 0.946 1.576 1.26 2.838l4.414-67.784c-0.946 0-2.524-0.316-4.414-0.63-4.414-0.946-5.044-4.414-8.828-0.946l-1.89-2.838c-0.63 0.316-0.946 0.63-1.576 0.63-5.36 2.524-5.99 0.63-8.198 4.414-1.26 2.206-0.316 1.26-2.524 3.154-3.468-0.316-2.838-2.206-6.62-1.576-3.468 0.316-3.468 2.524-7.568 0.316-5.044-2.838-1.576-8.512-1.89-13.558-6.62-2.838-6.62 0-11.664-1.576-0.946-1.89 0.946-4.098 1.576-5.36 0.946-2.206 1.89-4.098 1.26-6.936-6.936-0.946-6.304 0.946-8.512 4.098-3.154 5.044-15.448 4.414-16.078-6.304-0.316-3.784 1.576-6.304 2.524-10.088 0.63-2.838 3.784-4.098 6.62-5.674 5.674-2.838 7.568 0.63 11.35 0 3.468-0.63 2.206-3.784 10.718-1.89 7.882 1.576 5.674-0.63 7.25 6.62 1.89 0.63 3.784 0.946 5.674 1.576-0.63-11.35-5.044-8.198 4.414-14.818 2.838-1.89 4.098-1.89 7.25-3.468 3.784-1.89 4.73-1.89 3.784-6.936 0 0 0.316-0.316 0.63-0.316 2.206-1.576 4.73-3.468 6.936-5.044 2.206-1.89 6.304-2.838 9.458-3.468 0.316-3.784 0.946-4.098 5.044-5.36l2.206-36.888c-4.414 6.936 3.784 10.718-12.926 13.558-1.26 3.468-1.26 8.512-6.304 5.99-2.206-2.838 0.946-4.73 0.946-7.25a49.448 49.448 0 0 1-5.044-0.946c-6.936-1.576-4.73-3.154-11.664-3.468-0.316-4.098-1.26-1.89-1.26-5.36 2.838-2.206 7.882-4.414 12.926-6.304 4.73-1.576 9.458-3.154 13.242-4.098l-1.89 2.838c4.73 2.206 2.838 3.154 5.044 2.524 2.206-0.63 0-0.946 0-0.946-0.316-0.63-4.73-0.63 0-1.89 2.206-0.63 3.468 0.316 5.674 0.63-0.316-4.73-3.468-1.89-5.044-5.674 2.838 0.946 4.73 0.63 6.62 0l0.946-12.926c-2.206 0.946-3.784 2.206-4.73 4.098 0.946 1.576 2.838 1.576 3.784 2.524-1.26 1.89-4.414 3.784-7.568 3.784 1.89-6.936-3.468 1.576-2.206-8.512 2.838-0.946 6.304-0.946 8.512-2.524-0.946-0.316-1.89-0.946-2.838-1.26-4.414-0.63-6.304 2.838-8.828 4.098-0.946-1.576 0.316-1.576 0.316-3.468-3.468-0.316-8.198 0.63-10.404 2.524 2.524 1.89 1.89 1.576 5.99 2.206-2.524 3.784 1.576 3.784-3.154 5.99 0 0 0-0.63-0.316-0.316v-0.316c-0.316-0.63-0.316-1.26-0.63-2.206-1.26 0-1.89 0-2.524 0.316-1.576 0.63-2.206 1.576-3.154 3.154-2.838 0-6.936 0.63-9.774-0.316-3.154-1.26-1.26-0.63-2.524-1.576 8.512 0.63 4.73 0 11.034-1.26-0.316-0.946-0.63-0.946-0.946-1.26-1.89-3.154 0.316 1.576-1.26-1.89 1.89-2.524 2.524-2.206 3.784-4.098-3.784 0-6.304 1.89-9.458 1.576-8.828-0.63-14.502-5.99-22.7-2.524-2.524 0.946-6.936 2.206-6.936 4.73 3.784 0.63 5.99-0.316 9.774-0.946-0.63 1.89-1.576 3.784-2.206 5.674-4.414 0-2.524-0.316-6.304-0.946-3.784-0.946-4.098 0-7.568-0.316-5.044-0.316-1.26-0.946-5.36-1.26-5.36-0.316-13.872 2.524-19.232 2.206-8.828-1.26-17.34-2.524-26.166-3.784-5.674-0.946-29.004 3.784-30.266 4.73-2.206 1.26 0.316 1.26-0.316 4.73-3.784 0-12.926-1.576-13.558 2.838 3.154 0.946 5.36 0 7.568 1.26-2.206 1.576-5.36 1.89-8.512 2.206l-0.94-1.276zM685.714 474.168l-1.26-21.122-5.674-92.06c-5.36-2.524-0.946-4.098-12.926-4.414-5.674 0-7.568-2.206-15.132-0.316-5.36 1.576-3.154 0.316-7.882 0.63l-13.242 3.784c-1.89 1.26-1.89 0.63-4.098 0.946-5.674 1.26-0.63 0.316-3.468 1.576-5.044 2.206-5.674 0.63-7.882 1.26-0.946 0.316-1.26 0.946-2.838 1.576-2.206-2.838-2.524-3.468-7.568-2.838-4.098 5.044-0.946 4.414 2.206 7.568-4.414-0.316-8.198-2.524-12.926-1.89-2.838 0.316-1.576 0.316-2.838 2.206-3.468-0.946-3.154 0-6.62 0-4.098 0.316-3.784-0.63-6.62-0.316-4.73 0.316-7.882 3.154-11.034 3.468-2.206-2.838 1.576-2.524-3.154-3.154-1.576 1.89-0.946 1.26 0 3.784-4.73 0.316-6.304 0-7.568 3.468-1.26-0.316-2.838-0.316-4.098-0.63-1.26 0.946 0 0.316-0.946 2.206-4.098-0.946-4.414-0.946-5.36-4.414 5.044-0.316 8.198 1.89 11.664-0.946-0.946-4.73-15.132-4.73-19.862-5.99-5.99-1.89-9.458-2.838-17.656-0.946-2.206 0.63-4.414 0.63-6.304 1.26h-0.316v55.804c2.206 0.946 4.73 1.89 6.304 2.838 1.89 4.098-0.63 2.206 3.154 6.62 2.206 2.206 1.576 4.098 4.098 5.36 4.098-0.316 0.63 0.63 3.154-1.576 0.316-0.316 1.576-1.576 2.206-1.89-1.26-1.576-2.206-1.576-3.468-3.468 4.73-4.73 6.62-2.206 7.882 1.26 2.838 8.828 7.568 6.304 11.35 5.99 3.784-0.316 0.63 0 4.098 0.946 3.154 0.63 1.576 0 4.098-0.316 7.882-1.576 1.89 10.404 0.946 11.664-4.414 0.316-3.468-0.316-6.62-0.63-6.304-0.63 0.316 2.838-14.502-0.946-14.188-3.468-11.034-4.414-14.188 3.468-3.154-0.316-3.154-0.63-5.99-1.576-1.26-0.316-1.89-0.63-2.206-0.63v135.882c1.576 2.206 3.468 4.414 4.098 6.936 0.946 3.154-1.576 3.784 1.89 5.99 1.26 0.63 15.132 0.63 21.752-4.098 1.26-0.946 2.206-1.26 3.468-2.838 1.576-1.576 1.576-2.206 2.838-4.098 1.89-2.206 2.206-0.63 3.468-3.468 1.26-2.206 0.63-3.784 1.576-5.36 1.89-1.26 4.098-1.26 5.674-3.154 2.206-7.568-3.468-6.936 1.89-11.664 5.044-4.414 9.458-5.044 10.718-6.62 5.99-5.99-3.784-20.808-0.63-26.166 2.838-4.73 4.414-5.044 7.25-9.144 5.674-7.25 12.926-6.936 17.34-16.394 1.26-2.838 6.304-7.882 4.098-11.034-1.89-1.26-13.242 2.838-17.34 1.89-2.524-4.73-0.946-5.674-6.936-9.144-7.882-4.73-2.524-3.784-7.568-8.512-2.524-2.206-1.576-1.89-2.206-5.36-0.63-2.524-2.206-3.154-3.468-5.044-1.26-1.576-5.674-8.828-4.73-11.034 4.098-0.316 5.99 3.784 7.882 6.304 1.26 1.576 2.524 2.206 3.154 3.784 1.26 1.89 0.316 3.154 2.206 5.36 3.784 4.73 3.784 1.26 7.568 10.718 1.26 2.838 2.524 5.36 3.784 8.198 5.99-0.316 11.664-3.784 17.026-5.36s1.89-1.26 5.044-3.154c1.89-1.26 3.154-0.63 5.36-1.89 2.838-1.576 11.664-9.458 10.718-12.296-2.206-2.206-1.576-1.26-5.044-2.838-4.414-1.576-1.576-2.206-4.414-4.414-3.154 1.89-4.414 3.784-10.088 3.468 0-0.316-0.316-1.89-0.63-1.89-0.946-1.89-2.838-2.838-4.414-4.098-2.206-1.89-4.73-2.524-4.414-6.304 5.674-2.524 5.044 1.89 9.144 4.414 5.99 4.098 5.674 2.206 11.664 1.89 3.468 3.784 4.098 3.468 10.088 3.784 3.154 0.316 11.034-0.63 13.242 0 2.524 1.89 5.36 3.784 7.882 5.674 1.26 1.89 0.316 2.524 2.524 3.784 3.154 1.576 2.838 0 6.304-0.316 0.63 1.576 1.26 5.99 1.89 8.198 1.26 4.414 3.154 6.936 4.73 10.718 0.946 2.206 5.044 10.088 5.99 10.404 3.154 0.316 5.674-4.414 6.304-6.304 1.26-5.044 0.316-5.99 0.946-10.088 5.044-2.524 7.882-6.304 12.612-9.458 3.784-2.524 1.576-1.576 3.784-3.784l-0.938 0.316z m-173.716-45.4v6.936c3.154-1.26-1.576-1.576 3.468-5.044-1.574-0.946-2.52-1.578-3.468-1.892z m80.396 122.01c-3.154 1.26-3.784 4.414-6.304 5.99-2.838 1.89-6.304 0.946-7.25 4.73-1.26 4.414 2.206 3.154-1.576 8.828-1.576 2.206-1.576 7.568 0.63 9.144 6.62 5.044 10.088-7.568 11.664-11.35 1.26-2.838 2.206-5.99 3.468-8.512 1.26-2.838 2.838-5.044-0.316-8.828h-0.314v-0.002z m-10.72-130.522c0.63 5.674 5.044 7.882 7.882 10.404-0.316 2.838-1.26 1.89-1.26 5.674 3.784 2.206 6.304 3.468 11.35 2.206 0.63-4.73-1.26-4.414-3.154-7.568 0.316-0.316 1.26-0.946 1.26-0.946 1.26-1.26 0.63 0.63 1.26-1.89-3.468-0.946-9.144-3.784-9.774-7.25 1.576-0.946 1.26-0.316 2.524-0.946 2.838-1.26 0.63 0.63 2.206-1.576-1.576-2.206-3.154-2.524-6.62-1.576-1.576 0.316-5.36 2.524-6.304 3.154l0.63 0.314z m-30.896 1.576c-2.206-2.524-2.206-3.784-6.62-3.784-1.89 1.576-3.784 3.784-5.044 5.99-1.576 3.468-0.316 0.946-0.316 4.73v0.316c0 2.206-0.63-0.316-0.316 1.576 3.468-0.63 0.946-0.63 3.468-1.26 2.524-0.63 10.088-2.524 12.296-1.89 5.044 0.946 9.458 4.098 15.448 0.946-0.316-4.098-6.62-5.674-11.034-7.25 0.316-3.784 1.576-0.946 1.26-4.414-1.576 0-2.524-0.316-3.784 0.316-3.468 1.26-1.576 1.576-1.576 1.89 0 1.89 3.468-0.316 0 2.206-0.944 0.628-2.52 0.628-3.782 0.628z" fill="#E84F4F" p-id="6491"></path><path d="M703.054 361.932c11.034 0 7.25 3.154 12.926 4.414 4.414 1.26 1.576-0.63 6.62-0.946 1.576 0 3.154 0.316 4.73 0 4.414-0.316 2.206-0.63 3.784-1.26 3.154-1.26 15.132-0.946 17.972-0.316 2.838 0.946 2.524 1.26 6.936 2.206 5.674 0.946 12.296-0.946 17.34 1.26 3.154 1.26 1.89 1.89 6.936 1.89 4.098 0 8.198-0.946 11.98 0 4.414 0.946 1.576 0 6.936-0.946 1.576-0.316 2.838 0 4.414 0.316 3.784 0.946 2.838 1.576 7.882 1.576 8.828-0.316 14.188 2.838 22.386 3.784 5.36 0.63 11.034-0.316 10.718 5.044-5.674 0.63-10.404-3.468-15.764-0.946 0.316 4.098 3.154 1.576 5.99 4.73h-0.63c-4.098 0.946-5.99 1.89-9.144 5.044-4.098 0-7.25-0.63-11.664 0.946-0.63 5.36 8.198 4.098 6.936 11.98 0 1.576 0 4.098-0.316 5.99-3.784-0.316-12.612-7.882-14.502-10.088-3.154-4.098 5.99-13.242 0.63-12.926-1.89 0-0.63 0.946-2.838 2.524-5.36-0.316-2.838-3.468-9.458-1.576-1.576 4.73 2.206 4.098-0.63 5.36-2.838 1.26-5.044-0.63-7.25-0.946-0.316 0-14.818 0.63-15.448 0.63-1.576 1.576-4.414 7.25-5.044 8.828 4.73 2.206 7.882 1.576 9.458 1.576 2.206 0 3.154 1.26 4.73 1.576 5.36 0.946 0-1.26 4.414 0 3.154 2.838 6.62 5.674 9.774 8.198a14.746 14.746 0 0 0-1.576 3.154c-3.468-2.206-4.098-6.304-8.198-7.568-0.63 4.414 5.044 2.524 1.89 12.926-2.838 9.144-4.73 5.674-9.774 6.62-1.26 0.63-4.098 6.62-4.414 7.882 3.468 2.524 8.198 4.098 7.882 9.458-2.206 0.946-3.468 1.576-6.304 0.946-3.154-9.458-1.89-4.73-5.674-7.568-3.784-2.838 0.946-5.674-9.458-2.524-1.576-1.89-0.63-1.576-1.576-3.784-2.524 0.316-6.304 2.838-6.936 5.044 2.206 0.946 4.098 2.206 5.044 2.206 2.206 0.316 3.154-0.946 6.304 0.316-1.576 2.524-2.838 2.206-4.098 4.73 2.524 3.154 6.62 5.36 7.882 9.458 0 0 0 0.316 0.316 0.63 0.946 2.206 1.576 0.63 1.576 3.468 0 2.206-1.26 3.468-2.206 5.674-5.044 10.088-11.98 8.828-21.752 12.612 0 2.838 3.154 7.25-3.784 6.304-0.63-4.414 2.524-2.206 1.89-6.62-4.73-1.26-7.25 0.316-9.144 4.414 1.89 6.62 11.98 7.25 9.458 17.656-3.154 2.206-6.304 4.098-9.458 6.304-2.838-1.576 0.316-0.316-2.524-3.154-2.838-2.838-6.304-4.73-9.458-6.936-0.316 0.316-0.316 0.63-0.63 1.26-0.946 2.206-2.524 4.73-1.576 6.936 0.316 1.26 2.838 5.36 4.098 5.99 2.206 1.576 4.73 2.206 5.36 4.73 0.316 0.946 1.576 7.882 1.576 8.198-9.458-2.838-6.62-7.568-10.088-12.296-1.576-2.206-1.89-1.576-3.784-3.784 0-3.784 1.26-6.936 0-11.034-0.63-2.206-2.206-5.674-2.838-8.198-3.468 0.63-6.304 4.414-7.25 0.63 0-0.63-0.316-1.26-0.316-1.89-1.89-6.62-4.73-5.044-7.568-11.35-4.73 1.26-4.73 1.26-10.088 1.89l-0.316 0.316-1.26-21.122-5.674-92.06h0.316s14.818 1.576 15.764 1.576c3.154 0 3.154-0.946 7.568-0.946h0.63l-0.636 1.584z m79.448 85.122c0.316 2.206 1.89 3.784 4.414 4.73 2.524-3.154-0.63-3.468 8.828-5.674 0.63 0 1.26-0.316 1.89-0.63 7.882-3.468 2.524-0.946 8.512-2.838 0-2.838-0.946-4.73-1.26-7.882 0-3.468-1.576-4.73-5.674-5.36-0.316 6.62 5.36 4.414-3.784 11.034-4.73 3.468-7.882-0.63-12.612 6.304l-0.314 0.316z m-52.336 88.59c0.63-1.89 0.946-4.414 1.89-5.99 3.468 0 0.316 2.206 5.674 1.89 0.946-1.576 0.946-2.524 0.63-4.098-2.524-0.316-3.154 0-4.73 1.26-0.63-0.316-0.946-0.946-1.576-1.26-2.524-1.26-2.206 1.89-4.414-1.89-2.524-3.784 0.316-3.784-5.044-6.304-3.154-1.576-4.414-2.524-7.25-4.73-4.73-3.784-0.63-2.206-8.198-4.098 0 4.098 0.946 1.576 5.044 6.62 1.576 2.206 3.468 4.73 5.044 6.936 2.526 3.154 5.05 11.98 12.93 11.664z m11.982-5.99c6.62 0.946 11.35 2.838 13.242 1.576 1.89-1.89 1.26-3.154 3.468-5.674 2.838-3.468 0.946-2.524 4.414-5.36-1.89-5.674-2.838-3.154 0.946-8.828-0.63-1.89-2.206-3.784-4.098-5.044-2.206 0.946-0.316 0-1.89 1.26-2.524 2.206-5.36 4.73-7.882 6.936-2.206 1.89-1.26 0.316-4.73 2.524-0.946 0.316-1.89 0.946-3.154 1.26-1.576 0.316-2.838-0.946-3.154 2.838-0.316 1.89 2.206 5.674 2.838 8.198v0.314z m64.314 11.982c3.468 0.946 2.206-0.316 4.73 0 5.674 0.946 3.784 5.674 11.034-1.26 9.774 0 0 5.36 13.872 6.62 0-2.524-4.414-5.99-6.304-7.25 0.946-1.89 0.946-0.946 1.576-3.154a14.84 14.84 0 0 1-3.154-1.576c-5.674-5.044 1.89-1.26-10.088-5.674-1.576-0.63-6.936-2.524-7.882-2.524-4.73-0.63-4.414 2.524-8.198 3.154-2.524-2.524-0.946-6.62-5.36-6.304-5.674 0.316 0 7.25 0 7.25 2.206 1.89 2.838-0.316 9.144 3.468 6.304 3.784 1.26 4.414 0.316 7.25h0.314z m-8.198 14.818c0.63-0.946 0.63-0.946 0.946-1.26 1.26-1.26 0.316 0 1.576-1.576s1.26-1.89 1.26-3.784c-3.784 0-5.36 0.946-8.198-1.576-2.206 0.63-0.63 0.63-3.154 1.576-2.206 0.946-1.576 0-3.784 1.26-2.524 1.576-1.89 3.154-5.044 4.73-2.838-0.946-3.784-3.468-8.198-0.63-2.838 1.89-0.946 0.946-2.838 2.838-2.524 2.206-2.206 0.946-4.414 2.206-5.674 2.838 3.154 4.414-16.394 8.828-1.576 0.316-7.25 3.154-8.198 4.098-2.206 2.206-2.206 5.674-3.154 7.882-1.576 4.098 0 3.784-0.63 10.088-0.63 7.882-2.206 4.73-3.784 8.828 3.468 4.098 6.62 0.316 11.034-0.63 2.524-0.63 5.044 0 7.568-0.316 1.89-0.316 3.154-1.576 5.36-2.524 0.63-0.316 12.926-2.524 13.558-2.524 6.304 0 6.936 2.524 7.882 6.936 3.154-0.316 1.576-0.316 4.414-1.89 1.89 2.524 1.576 5.36 1.576 9.144 2.838 1.576 8.198 1.89 11.35 2.206 3.154 0 1.89-0.946 5.36-1.576 8.828-2.206 1.26 1.26 14.188-9.458 3.468-2.838 5.36-3.468 8.198-7.25 2.838-3.468 7.882-9.774 5.044-14.502-1.576-2.838-3.154-5.99-4.414-9.144-2.838-4.414-3.468 1.89-4.098-10.404-0.316-4.414 0.946-1.89-2.524-4.098 0-3.468 0-4.414-0.946-6.62-2.838 0.946-0.946-0.63-2.838 2.206-3.468 5.044-3.154 16.708-11.034 11.034-1.89-1.576-4.414-2.838-5.36-4.414l-0.31 0.316z" fill="#C94545" p-id="6492"></path></svg>