<?xml version="1.0" standalone="no"?><!DOCTYPE svg PUBLIC "-//W3C//DTD SVG 1.1//EN" "http://www.w3.org/Graphics/SVG/1.1/DTD/svg11.dtd"><svg t="1601474573442" class="icon" viewBox="0 0 1024 1024" version="1.1" xmlns="http://www.w3.org/2000/svg" p-id="7087" xmlns:xlink="http://www.w3.org/1999/xlink" width="128" height="128"><defs><style type="text/css"></style></defs><path d="M748.9 548.5l101.7 0.4c8 0 14.9 6.3 16.7 15.2l37.8 187c2.5 12.3-5.7 24.1-16.8 24.1H349.8c-11.2 0-19.4-12.1-16.7-24.5l42.1-188.8c1.9-8.7 8.8-14.8 16.7-14.8l95.7 0.4" fill="#E8CB3A" p-id="7088"></path><path d="M507 586.2c-64.4 0-170-225.1-171.8-293.6-1.1-41.4 14.9-81.1 44.9-112 32.7-33.6 79-52.9 126.9-52.9 91.9 0 167.3 71.9 171.8 163.6 3 60.8-61.9 204.5-119.7 265.1-19.1 20.1-36.1 29.8-52.1 29.8z m0-425.1c-38.9 0-76.5 15.6-103 42.8-23.7 24.4-36.3 55.6-35.5 87.8C370.4 364.1 475.8 551 507 552.8c1.5 0 10.3-0.9 27.9-19.4C586 479.9 648 345 645.5 293c-3.6-74-64.4-131.9-138.5-131.9z" fill="#050505" p-id="7089"></path><path d="M452.3 310.2a54.7 57.8 0 1 0 109.4 0 54.7 57.8 0 1 0-109.4 0Z" fill="#A53B24" p-id="7090"></path><path d="M271.2 777.9c-1.1 0-2.1-0.1-3.2-0.3-9-1.8-14.9-10.5-13.2-19.6l53.6-275c1.8-9 10.5-14.9 19.5-13.2 9 1.8 14.9 10.5 13.2 19.6l-53.6 275.1c-1.5 7.9-8.4 13.4-16.3 13.4zM715.6 777.9c-0.8 0-1.6-0.1-2.4-0.2-9.1-1.3-15.4-9.8-14.1-18.9l39.7-274.1c1.3-9.1 9.8-15.4 18.9-14.1 9.1 1.3 15.4 9.8 14.1 18.9l-39.7 274.1c-1.2 8.4-8.3 14.3-16.5 14.3z" fill="#050505" p-id="7091"></path><path d="M868.8 791.9h-713c-11.4 0-22.1-5.3-29.6-14.6-8.5-10.5-11.7-25-8.8-38.7l55.7-254.5c4.3-19.5 20-33.1 38.4-33.1h0.2l126.7 0.5c9.2 0 16.6 7.5 16.6 16.7s-7.5 16.6-16.7 16.6h-0.1l-126.7-0.5c-2.1 0-4.9 2.6-5.8 6.8L150 745.6c-1 4.6 0.5 8.5 2.2 10.6 0.8 1 2.1 2.1 3.6 2.1h713c1.5 0 2.8-1.1 3.6-2.1 1.7-2.1 3.2-5.9 2.3-10.4l-50-252c-0.9-4.4-3.7-7.1-5.8-7.1l-134.7-0.6c-9.2 0-16.6-7.5-16.6-16.7s7.5-16.6 16.7-16.6h0.1l134.7 0.6c18.7 0.1 34.5 14 38.4 34l50 252c2.7 13.5-0.7 27.8-9.2 38.1-7.6 9.2-18.3 14.4-29.5 14.4z" fill="#A53B24" p-id="7092"></path></svg>