<?xml version="1.0" standalone="no"?><!DOCTYPE svg PUBLIC "-//W3C//DTD SVG 1.1//EN" "http://www.w3.org/Graphics/SVG/1.1/DTD/svg11.dtd"><svg t="1601474347947" class="icon" viewBox="0 0 1024 1024" version="1.1" xmlns="http://www.w3.org/2000/svg" p-id="4485" xmlns:xlink="http://www.w3.org/1999/xlink" width="128" height="128"><defs><style type="text/css"></style></defs><path d="M0 731.648L292.352 1024 1024 292.352 731.648 0z m914.432-439.296L292.352 914.432l-182.784-182.784L731.648 109.568z" fill="#0079F2" p-id="4486"></path><path d="M145.9712 621.8752l36.608-36.5568 109.6704 109.6704-36.5568 36.5568zM219.1872 548.5056L255.7952 512l109.6704 109.7216-36.5568 36.5568zM292.352 475.904l36.5568-36.608 146.2784 146.2784-36.5568 36.5568zM366.0288 402.2272l36.5568-36.5568 109.6704 109.6704-36.5568 36.5568zM438.8352 329.216l36.608-36.5568 109.6704 109.7216-36.5568 36.5568zM512 255.8976l36.5568-36.608 146.2784 146.2784-36.5568 36.5568zM585.2672 183.0912l36.608-36.5568 109.6704 109.6704-36.5568 36.5568z" fill="#0079F2" p-id="4487"></path></svg>