<?xml version="1.0" standalone="no"?><!DOCTYPE svg PUBLIC "-//W3C//DTD SVG 1.1//EN" "http://www.w3.org/Graphics/SVG/1.1/DTD/svg11.dtd"><svg t="1602074389008" class="icon" viewBox="0 0 1024 1024" version="1.1" xmlns="http://www.w3.org/2000/svg" p-id="5762" xmlns:xlink="http://www.w3.org/1999/xlink" width="200" height="200"><defs><style type="text/css"></style></defs><path d="M898.602667 733.376L646.933333 481.706667a287.189333 287.189333 0 0 0-65.130666-306.474667 286.464 286.464 0 0 0-292.906667-69.930667 52.266667 52.266667 0 0 0-34.794667 37.824 53.226667 53.226667 0 0 0 14.186667 50.432l99.754667 99.754667c20.693333 20.693333 23.424 53.226667 6.208 74.069333a52.949333 52.949333 0 0 1-38.741334 19.52 52.330667 52.330667 0 0 1-40.277333-15.552l-101.973333-101.952a53.312 53.312 0 0 0-50.624-14.144 52.458667 52.458667 0 0 0-37.888 35.242667c-31.061333 97.877333-8.554667 205.290667 58.730666 280.362667a288.853333 288.853333 0 0 0 317.546667 76.821333l249.066667 249.066667a123.221333 123.221333 0 0 0 86.997333 36.032c26.197333 0 52.138667-8.469333 73.066667-25.770667a117.696 117.696 0 0 0 42.688-85.013333 117.525333 117.525333 0 0 0-34.24-88.618667zM536.554667 431.658667a31.893333 31.893333 0 0 1-22.634667 9.365333 32.021333 32.021333 0 0 1-22.634667-54.613333c10.069333-10.090667 15.616-23.466667 15.616-37.717334s-5.546667-27.626667-15.616-37.717333a32 32 0 1 1 45.269334-45.248 116.48 116.48 0 0 1 34.368 82.965333 116.48 116.48 0 0 1-34.368 82.965334z" fill="#0367FD" p-id="5763"></path></svg>